<mxfile host="app.diagrams.net" modified="2023-12-02T01:56:18.626Z" agent="Mozilla/5.0 (Windows NT 10.0; Win64; x64) AppleWebKit/537.36 (KHTML, like Gecko) Chrome/120.0.0.0 Safari/537.36 Edg/120.0.0.0" version="22.1.5" etag="dxS7NX1RDHqCRHwhwAKQ" type="github">
  <diagram name="Page-1" id="V-chBNf5mU1UyPzpxFyL">
    <mxGraphModel>
      <root>
        <mxCell id="0" />
        <mxCell id="1" parent="0" />
      </root>
    </mxGraphModel>
  </diagram>
</mxfile>
